<svg xmlns="http://www.w3.org/2000/svg" xmlns:xlink="http://www.w3.org/1999/xlink" viewBox="0 0 778.72 364.05"><defs><style>.a{fill:#fff;}.b{filter:url(#a);}.c{fill:#ea7899;}.d{fill:#f8eeb8;}.e{fill:#f9f5df;}.f{fill:#8d6c9e;}.g{fill:#b3b3b3;}.ab,.h{font-size:12px;font-family:Comic Sans MS;}.h{fill:#999;}.i{fill:#84c8df;}.j{fill:#aedbea;}.k{fill:#6dc2da;}.l{fill:#72c4ad;}.m{fill:#f6efde;}.n{fill:#c7e0e8;}.o{fill:#e7eff1;}.p{fill:#65bfa1;}.q{fill:#f1d397;}.r{fill:#f8ea9b;}.s{fill:#dadce3;}.t{fill:#cda1a7;}.u{fill:#c4939c;}.v{fill:#bcdae7;}.w{fill:#d5e8ed;}.x{fill:#f3f3f3;}.y{fill:#f7e3ae;}.z{fill:#ed82a5;}.aa{fill:#5cb89c;}.ab{fill:#4d4d4d;}.ac{fill:#666;}.ad{fill:#87cdb2;}.ae{fill:#acb7cd;}.af{fill:#faf8f0;}</style><filter id="a" name="AI_GaussianBlur_4"><feGaussianBlur stdDeviation="4"/></filter></defs><title>scene4</title><rect class="a" width="778.72" height="364.05"/><g class="b"><path class="c" d="M556.48,1040.14h-57a2,2,0,0,1-1.72-3L526.31,989a2,2,0,0,1,3.44,0l28.45,48.1A2,2,0,0,1,556.48,1040.14Z" transform="translate(0 -979.95)"/><polygon class="d" points="549.93 54.19 528.03 17.19 506.08 54.19 549.93 54.19"/><polygon class="e" points="514.99 54.19 516.74 54.19 531.94 23.79 530.99 22.19 514.99 54.19"/><polygon class="e" points="519.99 54.19 525.24 54.19 536.55 31.58 533.7 26.77 519.99 54.19"/><polygon class="e" points="528.24 54.19 547.49 54.19 548.61 51.96 538.17 34.33 528.24 54.19"/><path class="f" d="M529.71,998.08a2,2,0,0,0-3.44,0L506,1032.14a2,2,0,0,0,1.72,3H509a1,1,0,0,0,0-2h-1.24l20.24-34,20.24,34H547a1,1,0,1,0,0,2h1.24a2,2,0,0,0,1.76-3Z" transform="translate(0 -979.95)"/><path class="f" d="M559.06,1036.61l-28.49-48.08a3,3,0,0,0-5.16,0l-28.49,48.08a3,3,0,0,0,2.58,4.53h57a3,3,0,0,0,2.58-4.53h0Zm-1.71,2a1,1,0,0,1-.87.5h-57a1,1,0,0,1-.86-1.51l28.51-48.05a1,1,0,0,1,1.72,0l28.49,48.08a1,1,0,0,1,0,1v0Z" transform="translate(0 -979.95)"/><path class="f" d="M513,1031.14a1,1,0,0,0-1,1v2a1,1,0,1,0,2,0v-2A1,1,0,0,0,513,1031.14Z" transform="translate(0 -979.95)"/><path class="f" d="M528,1031.14a1,1,0,0,0-1,1v2a1,1,0,0,0,2,0v-2A1,1,0,0,0,528,1031.14Z" transform="translate(0 -979.95)"/><path class="f" d="M533,1031.14a1,1,0,0,0-1,1v2a1,1,0,0,0,2,0v-2A1,1,0,0,0,533,1031.14Z" transform="translate(0 -979.95)"/><path class="f" d="M538,1031.14a1,1,0,0,0-1,1v2a1,1,0,0,0,2,0v-2A1,1,0,0,0,538,1031.14Z" transform="translate(0 -979.95)"/><path class="f" d="M543,1031.14a1,1,0,0,0-1,1v2a1,1,0,0,0,2,0v-2A1,1,0,0,0,543,1031.14Z" transform="translate(0 -979.95)"/><path class="f" d="M518,1031.14a1,1,0,0,0-1,1v2a1,1,0,0,0,2,0v-2A1,1,0,0,0,518,1031.14Z" transform="translate(0 -979.95)"/><path class="f" d="M523,1031.14a1,1,0,0,0-1,1v2a1,1,0,0,0,2,0v-2A1,1,0,0,0,523,1031.14Z" transform="translate(0 -979.95)"/><path class="f" d="M528,1023.14a1,1,0,0,0,1-1l0.88-12.93a1.93,1.93,0,0,0-.51-1.46,1.86,1.86,0,0,0-1.07-.56,1.93,1.93,0,0,0-.53,0,1.88,1.88,0,0,0-1.22.57,1.93,1.93,0,0,0-.51,1.46l1,12.92A1,1,0,0,0,528,1023.14Z" transform="translate(0 -979.95)"/><circle class="f" cx="528.03" cy="47.19" r="2"/></g><circle class="g" cx="263.13" cy="53.38" r="1.75"/><circle class="g" cx="283.13" cy="53.38" r="1.75"/><circle class="g" cx="303.13" cy="53.38" r="1.75"/><circle class="g" cx="323.13" cy="53.38" r="1.75"/><circle class="g" cx="116.7" cy="53.74" r="1.75"/><circle class="g" cx="136.7" cy="53.74" r="1.75"/><circle class="g" cx="156.7" cy="53.74" r="1.75"/><circle class="g" cx="176.7" cy="53.74" r="1.75"/><g class="b"><path class="c" d="M103.86,1057.35h-57a2,2,0,0,1-1.72-3l28.55-48.1a2,2,0,0,1,3.44,0l28.45,48.1A2,2,0,0,1,103.86,1057.35Z" transform="translate(0 -979.95)"/><polygon class="d" points="97.31 71.4 75.41 34.4 53.46 71.4 97.31 71.4"/><polygon class="e" points="62.37 71.4 64.12 71.4 79.32 41 78.37 39.4 62.37 71.4"/><polygon class="e" points="67.37 71.4 72.62 71.4 83.93 48.79 81.08 43.98 67.37 71.4"/><polygon class="e" points="75.62 71.4 94.87 71.4 95.99 69.17 85.55 51.54 75.62 71.4"/><path class="f" d="M77.09,1015.29a2,2,0,0,0-3.44,0l-20.28,34.06a2,2,0,0,0,1.72,3h1.28a1,1,0,1,0,0-2H55.13l20.24-34,20.24,34H94.37a1,1,0,0,0,0,2h1.24a2,2,0,0,0,1.76-3Z" transform="translate(0 -979.95)"/><path class="f" d="M106.44,1053.82l-28.49-48.08a3,3,0,0,0-5.16,0L44.3,1053.82a3,3,0,0,0,2.58,4.53h57a3,3,0,0,0,2.58-4.53h0Zm-1.71,2a1,1,0,0,1-.87.5h-57a1,1,0,0,1-.86-1.51l28.51-48.05a1,1,0,0,1,1.72,0l28.49,48.08a1,1,0,0,1,0,1v0Z" transform="translate(0 -979.95)"/><path class="f" d="M60.37,1048.35a1,1,0,0,0-1,1v2a1,1,0,0,0,2,0v-2A1,1,0,0,0,60.37,1048.35Z" transform="translate(0 -979.95)"/><path class="f" d="M75.37,1048.35a1,1,0,0,0-1,1v2a1,1,0,0,0,2,0v-2A1,1,0,0,0,75.37,1048.35Z" transform="translate(0 -979.95)"/><path class="f" d="M80.37,1048.35a1,1,0,0,0-1,1v2a1,1,0,0,0,2,0v-2A1,1,0,0,0,80.37,1048.35Z" transform="translate(0 -979.95)"/><path class="f" d="M85.37,1048.35a1,1,0,0,0-1,1v2a1,1,0,0,0,2,0v-2A1,1,0,0,0,85.37,1048.35Z" transform="translate(0 -979.95)"/><path class="f" d="M90.37,1048.35a1,1,0,0,0-1,1v2a1,1,0,0,0,2,0v-2A1,1,0,0,0,90.37,1048.35Z" transform="translate(0 -979.95)"/><path class="f" d="M65.37,1048.35a1,1,0,0,0-1,1v2a1,1,0,0,0,2,0v-2A1,1,0,0,0,65.37,1048.35Z" transform="translate(0 -979.95)"/><path class="f" d="M70.37,1048.35a1,1,0,0,0-1,1v2a1,1,0,0,0,2,0v-2A1,1,0,0,0,70.37,1048.35Z" transform="translate(0 -979.95)"/><path class="f" d="M75.37,1040.35a1,1,0,0,0,1-1l0.88-12.93a1.93,1.93,0,0,0-.51-1.46,1.86,1.86,0,0,0-1.07-.56,1.93,1.93,0,0,0-.53,0,1.88,1.88,0,0,0-1.22.57,1.93,1.93,0,0,0-.51,1.46l1,12.92A1,1,0,0,0,75.37,1040.35Z" transform="translate(0 -979.95)"/><circle class="f" cx="75.41" cy="64.4" r="2"/></g><g class="b"><path class="c" d="M248.41,1055.31h-57a2,2,0,0,1-1.72-3l28.55-48.1a2,2,0,0,1,3.44,0l28.45,48.1A2,2,0,0,1,248.41,1055.31Z" transform="translate(0 -979.95)"/><polygon class="d" points="241.86 69.36 219.96 32.36 198.01 69.36 241.86 69.36"/><polygon class="e" points="206.92 69.36 208.67 69.36 223.87 38.96 222.92 37.36 206.92 69.36"/><polygon class="e" points="211.92 69.36 217.17 69.36 228.48 46.75 225.63 41.94 211.92 69.36"/><polygon class="e" points="220.17 69.36 239.42 69.36 240.54 67.13 230.1 49.5 220.17 69.36"/><path class="f" d="M221.64,1013.25a2,2,0,0,0-3.44,0l-20.28,34.06a2,2,0,0,0,1.72,3h1.28a1,1,0,0,0,0-2h-1.24l20.24-34,20.24,34h-1.24a1,1,0,0,0,0,2h1.24a2,2,0,0,0,1.76-3Z" transform="translate(0 -979.95)"/><path class="f" d="M251,1051.78L222.5,1003.7a3,3,0,0,0-5.16,0l-28.49,48.08a3,3,0,0,0,2.58,4.53h57a3,3,0,0,0,2.58-4.53h0Zm-1.71,2a1,1,0,0,1-.87.5h-57a1,1,0,0,1-.86-1.51l28.51-48.05a1,1,0,0,1,1.72,0l28.49,48.08a1,1,0,0,1,0,1v0Z" transform="translate(0 -979.95)"/><path class="f" d="M204.92,1046.31a1,1,0,0,0-1,1v2a1,1,0,0,0,2,0v-2A1,1,0,0,0,204.92,1046.31Z" transform="translate(0 -979.95)"/><path class="f" d="M219.92,1046.31a1,1,0,0,0-1,1v2a1,1,0,0,0,2,0v-2A1,1,0,0,0,219.92,1046.31Z" transform="translate(0 -979.95)"/><path class="f" d="M224.92,1046.31a1,1,0,0,0-1,1v2a1,1,0,0,0,2,0v-2A1,1,0,0,0,224.92,1046.31Z" transform="translate(0 -979.95)"/><path class="f" d="M229.92,1046.31a1,1,0,0,0-1,1v2a1,1,0,0,0,2,0v-2A1,1,0,0,0,229.92,1046.31Z" transform="translate(0 -979.95)"/><path class="f" d="M234.92,1046.31a1,1,0,0,0-1,1v2a1,1,0,0,0,2,0v-2A1,1,0,0,0,234.92,1046.31Z" transform="translate(0 -979.95)"/><path class="f" d="M209.92,1046.31a1,1,0,0,0-1,1v2a1,1,0,0,0,2,0v-2A1,1,0,0,0,209.92,1046.31Z" transform="translate(0 -979.95)"/><path class="f" d="M214.92,1046.31a1,1,0,0,0-1,1v2a1,1,0,0,0,2,0v-2A1,1,0,0,0,214.92,1046.31Z" transform="translate(0 -979.95)"/><path class="f" d="M219.92,1038.31a1,1,0,0,0,1-1l0.88-12.93a1.93,1.93,0,0,0-.51-1.46,1.86,1.86,0,0,0-1.07-.56,1.93,1.93,0,0,0-.53,0,1.88,1.88,0,0,0-1.22.57,1.93,1.93,0,0,0-.51,1.46l1,12.92A1,1,0,0,0,219.92,1038.31Z" transform="translate(0 -979.95)"/><circle class="f" cx="219.96" cy="62.36" r="2"/></g><text class="h" transform="translate(12.93 94.12)">Semaphore disappears</text><text class="h" transform="translate(157.16 94.12)">Semaphore disappears</text><g class="b"><rect class="i" x="338.05" y="25.73" width="50" height="48"/><path class="j" d="M385,1010.68H341a3,3,0,0,1-3-3h0a2,2,0,0,1,2-2h46a2,2,0,0,1,2,2h0A3,3,0,0,1,385,1010.68Z" transform="translate(0 -979.95)"/><path class="k" d="M387,1053.68H339a1,1,0,0,1-1-1h0a4,4,0,0,1,4-4h43a3,3,0,0,1,3,3v1A1,1,0,0,1,387,1053.68Z" transform="translate(0 -979.95)"/><circle class="l" cx="382.05" cy="69.73" r="12"/><path class="f" d="M343,1008.68a1,1,0,0,0-1,1v2a1,1,0,0,0,2,0v-2A1,1,0,0,0,343,1008.68Z" transform="translate(0 -979.95)"/><path class="f" d="M348,1012.68a1,1,0,0,0,1-1v-2a1,1,0,1,0-2,0v2A1,1,0,0,0,348,1012.68Z" transform="translate(0 -979.95)"/><path class="f" d="M353,1012.68a1,1,0,0,0,1-1v-2a1,1,0,1,0-2,0v2A1,1,0,0,0,353,1012.68Z" transform="translate(0 -979.95)"/><path class="f" d="M358,1012.68a1,1,0,0,0,1-1v-2a1,1,0,1,0-2,0v2A1,1,0,0,0,358,1012.68Z" transform="translate(0 -979.95)"/><path class="f" d="M363,1012.68a1,1,0,0,0,1-1v-2a1,1,0,1,0-2,0v2A1,1,0,0,0,363,1012.68Z" transform="translate(0 -979.95)"/><path class="f" d="M368,1012.68a1,1,0,0,0,1-1v-2a1,1,0,1,0-2,0v2A1,1,0,0,0,368,1012.68Z" transform="translate(0 -979.95)"/><path class="f" d="M373,1012.68a1,1,0,0,0,1-1v-2a1,1,0,1,0-2,0v2A1,1,0,0,0,373,1012.68Z" transform="translate(0 -979.95)"/><path class="f" d="M378,1012.68a1,1,0,0,0,1-1v-2a1,1,0,1,0-2,0v2A1,1,0,0,0,378,1012.68Z" transform="translate(0 -979.95)"/><path class="f" d="M383,1012.68a1,1,0,0,0,1-1v-2a1,1,0,1,0-2,0v2A1,1,0,0,0,383,1012.68Z" transform="translate(0 -979.95)"/><path class="a" d="M370,1024.68h6a1,1,0,0,0,0-2h-6A1,1,0,1,0,370,1024.68Z" transform="translate(0 -979.95)"/><path class="a" d="M348,1024.68h18a1,1,0,0,0,0-2H348A1,1,0,0,0,348,1024.68Z" transform="translate(0 -979.95)"/><path class="a" d="M348,1030.68h22a1,1,0,0,0,0-2H348A1,1,0,0,0,348,1030.68Z" transform="translate(0 -979.95)"/><path class="a" d="M375,1035.68a1,1,0,0,0-1-1H348a1,1,0,0,0,0,2h26A1,1,0,0,0,375,1035.68Z" transform="translate(0 -979.95)"/><path class="f" d="M389,1038.74v-31.06a3,3,0,0,0-3-3H340a3,3,0,0,0-3,3v44a3,3,0,0,0,3,3h30A13,13,0,1,0,389,1038.74Zm-49,13.94a1,1,0,0,1-1-1v-44a1,1,0,0,1,1-1h46a1,1,0,0,1,1,1v30a13,13,0,0,0-17.64,15H340Zm42,8a11,11,0,1,1,11-11h0A11,11,0,0,1,382,1060.68Z" transform="translate(0 -979.95)"/><path class="m" d="M388,1048.68h-5v-5a1,1,0,0,0-2,0v5h-5a1,1,0,0,0,0,2h5v5a1,1,0,0,0,2,0v-5h5A1,1,0,0,0,388,1048.68Z" transform="translate(0 -979.95)"/></g><circle class="g" cx="408.98" cy="53.74" r="1.75"/><circle class="g" cx="428.98" cy="53.74" r="1.75"/><circle class="g" cx="448.98" cy="53.74" r="1.75"/><circle class="g" cx="468.98" cy="53.74" r="1.75"/><text class="h" transform="translate(456.59 93.95)">Semaphores continue to <tspan x="-2.92" y="14.4">disappear, logs agree but </tspan><tspan x="17.04" y="28.8">reveal little more.</tspan></text><g class="b"><path class="c" d="M547.48,1047.14h-57a2,2,0,0,1-1.72-3L517.31,996a2,2,0,0,1,3.44,0l28.45,48.1A2,2,0,0,1,547.48,1047.14Z" transform="translate(0 -979.95)"/><polygon class="d" points="540.93 61.19 519.03 24.19 497.08 61.19 540.93 61.19"/><polygon class="e" points="505.99 61.19 507.74 61.19 522.94 30.79 521.99 29.19 505.99 61.19"/><polygon class="e" points="510.99 61.19 516.24 61.19 527.55 38.58 524.7 33.77 510.99 61.19"/><polygon class="e" points="519.24 61.19 538.49 61.19 539.61 58.96 529.17 41.33 519.24 61.19"/><path class="f" d="M520.71,1005.08a2,2,0,0,0-3.44,0L497,1039.14a2,2,0,0,0,1.72,3H500a1,1,0,0,0,0-2h-1.24l20.24-34,20.24,34H538a1,1,0,1,0,0,2h1.24a2,2,0,0,0,1.76-3Z" transform="translate(0 -979.95)"/><path class="f" d="M550.06,1043.61l-28.49-48.08a3,3,0,0,0-5.16,0l-28.49,48.08a3,3,0,0,0,2.58,4.53h57a3,3,0,0,0,2.58-4.53h0Zm-1.71,2a1,1,0,0,1-.87.5h-57a1,1,0,0,1-.86-1.51l28.51-48.05a1,1,0,0,1,1.72,0l28.49,48.08a1,1,0,0,1,0,1v0Z" transform="translate(0 -979.95)"/><path class="f" d="M504,1038.14a1,1,0,0,0-1,1v2a1,1,0,0,0,2,0v-2A1,1,0,0,0,504,1038.14Z" transform="translate(0 -979.95)"/><path class="f" d="M519,1038.14a1,1,0,0,0-1,1v2a1,1,0,0,0,2,0v-2A1,1,0,0,0,519,1038.14Z" transform="translate(0 -979.95)"/><path class="f" d="M524,1038.14a1,1,0,0,0-1,1v2a1,1,0,0,0,2,0v-2A1,1,0,0,0,524,1038.14Z" transform="translate(0 -979.95)"/><path class="f" d="M529,1038.14a1,1,0,0,0-1,1v2a1,1,0,0,0,2,0v-2A1,1,0,0,0,529,1038.14Z" transform="translate(0 -979.95)"/><path class="f" d="M534,1038.14a1,1,0,0,0-1,1v2a1,1,0,0,0,2,0v-2A1,1,0,0,0,534,1038.14Z" transform="translate(0 -979.95)"/><path class="f" d="M509,1038.14a1,1,0,0,0-1,1v2a1,1,0,0,0,2,0v-2A1,1,0,0,0,509,1038.14Z" transform="translate(0 -979.95)"/><path class="f" d="M514,1038.14a1,1,0,0,0-1,1v2a1,1,0,0,0,2,0v-2A1,1,0,0,0,514,1038.14Z" transform="translate(0 -979.95)"/><path class="f" d="M519,1030.14a1,1,0,0,0,1-1l0.88-12.93a1.93,1.93,0,0,0-.51-1.46,1.86,1.86,0,0,0-1.07-.56,1.93,1.93,0,0,0-.53,0,1.88,1.88,0,0,0-1.22.57,1.93,1.93,0,0,0-.51,1.46l1,12.92A1,1,0,0,0,519,1030.14Z" transform="translate(0 -979.95)"/><circle class="f" cx="519.03" cy="54.19" r="2"/></g><g class="b"><path class="c" d="M538.48,1055.14h-57a2,2,0,0,1-1.72-3l28.55-48.1a2,2,0,0,1,3.44,0l28.45,48.1A2,2,0,0,1,538.48,1055.14Z" transform="translate(0 -979.95)"/><polygon class="d" points="531.93 69.19 510.03 32.19 488.08 69.19 531.93 69.19"/><polygon class="e" points="496.99 69.19 498.74 69.19 513.94 38.79 512.99 37.19 496.99 69.19"/><polygon class="e" points="501.99 69.19 507.24 69.19 518.55 46.58 515.7 41.77 501.99 69.19"/><polygon class="e" points="510.24 69.19 529.49 69.19 530.61 66.96 520.17 49.33 510.24 69.19"/><path class="f" d="M511.71,1013.08a2,2,0,0,0-3.44,0L488,1047.14a2,2,0,0,0,1.72,3H491a1,1,0,0,0,0-2h-1.24l20.24-34,20.24,34H529a1,1,0,1,0,0,2h1.24a2,2,0,0,0,1.76-3Z" transform="translate(0 -979.95)"/><path class="f" d="M541.06,1051.61l-28.49-48.08a3,3,0,0,0-5.16,0l-28.49,48.08a3,3,0,0,0,2.58,4.53h57a3,3,0,0,0,2.58-4.53h0Zm-1.71,2a1,1,0,0,1-.87.5h-57a1,1,0,0,1-.86-1.51l28.51-48.05a1,1,0,0,1,1.72,0l28.49,48.08a1,1,0,0,1,0,1v0Z" transform="translate(0 -979.95)"/><path class="f" d="M495,1046.14a1,1,0,0,0-1,1v2a1,1,0,0,0,2,0v-2A1,1,0,0,0,495,1046.14Z" transform="translate(0 -979.95)"/><path class="f" d="M510,1046.14a1,1,0,0,0-1,1v2a1,1,0,0,0,2,0v-2A1,1,0,0,0,510,1046.14Z" transform="translate(0 -979.95)"/><path class="f" d="M515,1046.14a1,1,0,0,0-1,1v2a1,1,0,0,0,2,0v-2A1,1,0,0,0,515,1046.14Z" transform="translate(0 -979.95)"/><path class="f" d="M520,1046.14a1,1,0,0,0-1,1v2a1,1,0,0,0,2,0v-2A1,1,0,0,0,520,1046.14Z" transform="translate(0 -979.95)"/><path class="f" d="M525,1046.14a1,1,0,0,0-1,1v2a1,1,0,0,0,2,0v-2A1,1,0,0,0,525,1046.14Z" transform="translate(0 -979.95)"/><path class="f" d="M500,1046.14a1,1,0,0,0-1,1v2a1,1,0,0,0,2,0v-2A1,1,0,0,0,500,1046.14Z" transform="translate(0 -979.95)"/><path class="f" d="M505,1046.14a1,1,0,0,0-1,1v2a1,1,0,0,0,2,0v-2A1,1,0,0,0,505,1046.14Z" transform="translate(0 -979.95)"/><path class="f" d="M510,1038.14a1,1,0,0,0,1-1l0.88-12.93a1.93,1.93,0,0,0-.51-1.46,1.86,1.86,0,0,0-1.07-.56,1.93,1.93,0,0,0-.53,0,1.88,1.88,0,0,0-1.22.57,1.93,1.93,0,0,0-.51,1.46l1,12.92A1,1,0,0,0,510,1038.14Z" transform="translate(0 -979.95)"/><circle class="f" cx="510.03" cy="62.19" r="2"/></g><circle class="g" cx="578.98" cy="53.74" r="1.75"/><circle class="g" cx="598.98" cy="53.74" r="1.75"/><circle class="g" cx="618.98" cy="53.74" r="1.75"/><circle class="g" cx="638.98" cy="53.74" r="1.75"/><text class="h" transform="translate(302.77 94.03)">Log as much semaphore <tspan x="12.12" y="14.4">activity as possible</tspan></text><g class="b"><circle class="n" cx="689.93" cy="48.2" r="28"/><path class="o" d="M671.64,1049.44a28,28,0,0,0,9.18,5.82l34.11-34.11v-6.43a28.1,28.1,0,0,0-3.71-4.86Z" transform="translate(0 -979.95)"/><path class="o" d="M669.69,1047.39l39.24-39.24h-6l-35.78,35.78A28.08,28.08,0,0,0,669.69,1047.39Z" transform="translate(0 -979.95)"/><path class="o" d="M666.72,1040.36l33.21-33.21-3-2-31.64,31.64A27.81,27.81,0,0,0,666.72,1040.36Z" transform="translate(0 -979.95)"/><path class="l" d="M689.93,1000.15a28,28,0,1,0,28,28A28,28,0,0,0,689.93,1000.15Zm0,50a22,22,0,1,1,15.17-37.93l0.68,0.67q0.39,0.4.75,0.82A22,22,0,0,1,689.93,1050.15Z" transform="translate(0 -979.95)"/><path class="p" d="M689.93,1050.15a22,22,0,0,1-22-22h-1.66a4,4,0,0,0-3.95,4.71,28,28,0,0,0,55.21,0,4,4,0,0,0-3.94-4.71h-1.66A22,22,0,0,1,689.93,1050.15Z" transform="translate(0 -979.95)"/><path class="q" d="M721.25,1060.15H690.93a2,2,0,0,1-1.68-3.09l15.18-23.33a2,2,0,0,1,3.36,0l15.14,23.33A2,2,0,0,1,721.25,1060.15Z" transform="translate(0 -979.95)"/><path class="c" d="M689.93,1015.15a1,1,0,0,0,1-1v-2a1,1,0,1,0-2,0v2A1,1,0,0,0,689.93,1015.15Z" transform="translate(0 -979.95)"/><path class="f" d="M675.93,1027.15h-2a1,1,0,0,0,0,2h2A1,1,0,0,0,675.93,1027.15Z" transform="translate(0 -979.95)"/><path class="c" d="M702.93,1028.15a1,1,0,0,0,1,1h2a1,1,0,0,0,0-2h-2A1,1,0,0,0,702.93,1028.15Z" transform="translate(0 -979.95)"/><path class="f" d="M689.93,1041.15a1,1,0,0,0-1,1v2a1,1,0,0,0,2,0v-2A1,1,0,0,0,689.93,1041.15Z" transform="translate(0 -979.95)"/><path class="c" d="M694.8,1016.1a1,1,0,0,0,1.3-.55l0.75-1.85a1,1,0,0,0-1.85-.75l-0.75,1.85A1,1,0,0,0,694.8,1016.1Z" transform="translate(0 -979.95)"/><path class="c" d="M698.93,1017.39a1,1,0,1,0,1.44,1.39l1.39-1.44a1,1,0,1,0-1.44-1.39Z" transform="translate(0 -979.95)"/><path class="c" d="M701.81,1022.86a1,1,0,0,0,1.32.5l1.8-.8a1,1,0,0,0-.81-1.83l-1.83.81A1,1,0,0,0,701.81,1022.86Z" transform="translate(0 -979.95)"/><path class="f" d="M691.86,1028.66a1.94,1.94,0,0,0-.93-2.23v-8.28a1,1,0,1,0-2,0v8.28a2,2,0,0,0,1.51,3.65l6.28,6.28a1,1,0,0,0,1.41-1.41Z" transform="translate(0 -979.95)"/><path class="f" d="M697.28,1008.47a21.1,21.1,0,0,1,2.1.92,1,1,0,0,0,.9-1.78,22.71,22.71,0,0,0-2.3-1,1,1,0,0,0-.7,1.87h0Z" transform="translate(0 -979.95)"/><path class="f" d="M723.76,1056.52l-8.83-13.67a29,29,0,1,0-26.75,14.23,3,3,0,0,0,2.75,4.07h30.32a3,3,0,0,0,2.52-4.63h0Zm-60.83-28.37A27,27,0,1,1,713.67,1041l-2.56-4a23,23,0,0,0-7-27,1,1,0,0,0-1.35,1.48l0.12,0.09a21.27,21.27,0,0,1,1.91,1.7,21,21,0,0,1,5,21.67l-1.17-1.81a3,3,0,0,0-2.52-1.37h0a3,3,0,0,0-2.51,1.37l-10.14,15.67a21,21,0,1,1-.18-41.4,1,1,0,0,0,.32-2,23,23,0,1,0-3.66,45.73A13.5,13.5,0,0,0,692,1051l-2.69,4.11A27,27,0,0,1,662.93,1028.15Zm59.2,30.48a1,1,0,0,1-.88.52H690.93a1,1,0,0,1-.84-1.54l15.18-23.33a1,1,0,0,1,.84-0.46h0a1,1,0,0,1,.84.46l15.14,23.33A1,1,0,0,1,722.13,1058.63Z" transform="translate(0 -979.95)"/><circle class="f" cx="705.93" cy="74.2" r="2"/><path class="f" d="M705.93,1051.15a1,1,0,0,0,1-.89l0.93-8a1.93,1.93,0,0,0-.51-1.46,2,2,0,0,0-2.83,0h0a2,2,0,0,0-.5,1.49l0.92,8A1,1,0,0,0,705.93,1051.15Z" transform="translate(0 -979.95)"/></g><circle class="g" cx="689.93" cy="202.4" r="1.75"/><circle class="g" cx="689.93" cy="182.4" r="1.75"/><circle class="g" cx="689.93" cy="162.4" r="1.75"/><circle class="g" cx="689.93" cy="142.4" r="1.75"/><text class="h" transform="translate(623.47 94.95)">Notice that semaphores <tspan x="-3.04" y="14.4">disappear consistently on </tspan><tspan x="15.57" y="28.8">daily cron job runs</tspan></text><g class="b"><circle class="r" cx="684.26" cy="248.94" r="24"/><path class="q" d="M670.4,1242.74L698.12,1215a4,4,0,0,1,6.11.54,24,24,0,0,1-33.29,33.32A4,4,0,0,1,670.4,1242.74Z" transform="translate(0 -979.95)"/><rect class="s" x="700.04" y="1245.34" width="5.54" height="4" transform="translate(-676.16 -117.65) rotate(-45)"/><rect class="t" x="708.06" y="1245.67" width="8.49" height="22.51" rx="4" ry="4" transform="translate(-680.15 -108.13) rotate(-45)"/><path class="u" d="M702.85,1250.47h0a2.12,2.12,0,0,1,3,0l12.92,12.92a2.12,2.12,0,0,1,0,3h0a2.12,2.12,0,0,1-3,0l-12.92-12.92A2.12,2.12,0,0,1,702.85,1250.47Z" transform="translate(0 -979.95)"/><circle class="v" cx="684.26" cy="248.94" r="16"/><path class="f" d="M671.15,1233.79a1,1,0,0,0-1.33-.48l-1.81.84a1,1,0,0,0,.85,1.81l1.81-.84A1,1,0,0,0,671.15,1233.79Z" transform="translate(0 -979.95)"/><path class="f" d="M705,1229.24l-4.07-4.07a1,1,0,0,0-1.41,0l-4.07,4.07a1,1,0,0,0,1.41,1.41l2.36-2.32v0.55a15,15,0,0,1-19.76,14.23,1,1,0,0,0-.63,1.9,17,17,0,0,0,22.39-16.13v-0.62l2.4,2.4a1,1,0,0,0,1.41-1.41h0Z" transform="translate(0 -979.95)"/><path class="f" d="M721.14,1258.34L710.8,1248a5,5,0,0,0-3.54-1.46h-0.07a1,1,0,0,0-.23-0.37l-2.54-2.54A25,25,0,1,0,699,1249l2.54,2.54a1,1,0,0,0,.37.23,5,5,0,0,0,1.45,3.6l10.35,10.35a5,5,0,0,0,7.07,0l0.34-.34a5,5,0,0,0,0-7.07h0Zm-36.88-6.46a23,23,0,1,1,23-23A23,23,0,0,1,684.26,1251.88Zm19.12-3.54a4.94,4.94,0,0,0-.92,1.32l-1.88-1.88a25.2,25.2,0,0,0,2.59-2.59l1.87,1.87a5,5,0,0,0-1.32.92ZM719.72,1264l-0.34.34a3.07,3.07,0,0,1-4.24,0L704.8,1254a3,3,0,0,1,0-4.24l0.34-.34a3,3,0,0,1,4.24,0l10.34,10.34A3,3,0,0,1,719.72,1264Z" transform="translate(0 -979.95)"/><path class="f" d="M674.75,1240l-1.15,1.64a1,1,0,0,0,1.66,1.14l1.15-1.64a1,1,0,1,0-1.64-1.15h0Z" transform="translate(0 -979.95)"/><path class="f" d="M673.26,1237.09a1,1,0,0,0-1.41-.12h0l-1.53,1.29a1,1,0,0,0,1.29,1.53l1.53-1.29a1,1,0,0,0,.12-1.41h0Z" transform="translate(0 -979.95)"/><path class="f" d="M692.88,1216.77a1,1,0,0,0,.82-0.42l1.16-1.63a1,1,0,1,0-1.6-1.16l-1.16,1.63a1,1,0,0,0,.81,1.58h0Z" transform="translate(0 -979.95)"/><path class="f" d="M695.17,1219.25a1,1,0,0,0,1.41.13h0l1.54-1.28a1,1,0,1,0-1.28-1.54l-1.58,1.32A1,1,0,0,0,695.17,1219.25Z" transform="translate(0 -979.95)"/><path class="f" d="M697.26,1222.56a1,1,0,0,0,1.33.49h0l1.82-.83a1,1,0,0,0-.83-1.82l-1.82.83a1,1,0,0,0-.5,1.32h0Z" transform="translate(0 -979.95)"/><path class="f" d="M668.26,1231a1,1,0,0,0,.71-0.29l4.07-4.07a1,1,0,0,0-1.41-1.41l-2.29,2.29a15,15,0,0,1,19.38-12.92,1,1,0,0,0,.59-1.91,17,17,0,0,0-22,15l-2.41-2.47a1,1,0,0,0-1.41,1.41l4.07,4.07A1,1,0,0,0,668.26,1231Z" transform="translate(0 -979.95)"/><circle class="w" cx="684.26" cy="248.94" r="7"/><circle class="x" cx="680.26" cy="244.94" r="4"/><circle class="x" cx="688.76" cy="253.44" r="1.5"/></g><circle class="g" cx="578.98" cy="252.74" r="1.75"/><circle class="g" cx="598.98" cy="252.74" r="1.75"/><circle class="g" cx="618.98" cy="252.74" r="1.75"/><circle class="g" cx="638.98" cy="252.74" r="1.75"/><text y="-979.95"/><text class="h" transform="translate(611.98 305.94)">Deduce the instigating cron <tspan x="-6.45" y="14.4">job through elimination (being </tspan><tspan x="-2.41" y="28.8">unable to incite misbehavour </tspan><tspan x="-0.99" y="43.2">through explicit invocation).</tspan></text><rect class="y" x="336.68" y="228.95" width="20" height="20" rx="2" ry="2"/><path class="m" d="M338.68,1228.9h8v-20h-8a2,2,0,0,0-2,2v16A2,2,0,0,0,338.68,1228.9Z" transform="translate(0 -979.95)"/><rect class="l" x="372.68" y="1242.9" width="16" height="16" rx="2" ry="2" transform="translate(-773.02 -344.39) rotate(-45)"/><circle class="z" cx="380.68" cy="238.95" r="11"/><circle class="c" cx="380.68" cy="238.95" r="7"/><path class="i" d="M345.81,1241.4l-9.27,16a1,1,0,0,0,.87,1.5H356a1,1,0,0,0,.87-1.5l-9.27-16A1,1,0,0,0,345.81,1241.4Z" transform="translate(0 -979.95)"/><path class="aa" d="M390.1,1252.31l-8.5,8.49a2,2,0,0,1-1.41.58v-21a2,2,0,0,1,1.41.58l8.49,8.49a2,2,0,0,1,0,2.83Z" transform="translate(0 -979.95)"/><path class="k" d="M337.41,1258.9h9.27v-18a1,1,0,0,0-.87.5l-9.26,16A1,1,0,0,0,337.41,1258.9Z" transform="translate(0 -979.95)"/><path class="f" d="M355.68,1249.9v2a1,1,0,0,0,2,0v-2A1,1,0,0,0,355.68,1249.9Z" transform="translate(0 -979.95)"/><path class="f" d="M361.68,1248.9a1,1,0,0,0-1,1v2a1,1,0,0,0,2,0v-2A1,1,0,0,0,361.68,1248.9Z" transform="translate(0 -979.95)"/><path class="f" d="M366.68,1248.9a1,1,0,0,0-1,1v2a1,1,0,0,0,2,0v-2A1,1,0,0,0,366.68,1248.9Z" transform="translate(0 -979.95)"/><path class="f" d="M382.8,1240.29a2.89,2.89,0,0,0-1.36-.74l3.94-3.94a1,1,0,0,0-1.41-1.41l-2.29,2.29v-5.64a12,12,0,1,0-2,0v5.64l-2.29-2.29a1,1,0,0,0-1.41,1.41l3.94,3.94a2.89,2.89,0,0,0-1.36.74l-8.49,8.48a3,3,0,0,0,0,4.24l8.48,8.49a3,3,0,0,0,4.24,0l8.49-8.49a3,3,0,0,0,0-4.24Zm-12.12-21.39a10,10,0,1,1,10,10A10,10,0,0,1,370.68,1218.9Zm19.19,32.71-8.49,8.49a1,1,0,0,1-1.41,0l-8.49-8.49a1,1,0,0,1,0-1.41l8.49-8.49a1,1,0,0,1,1.41,0l8.49,8.49A1,1,0,0,1,389.87,1251.61Z" transform="translate(0 -979.95)"/><path class="f" d="M368.39,1218.19l-4-4a1,1,0,0,0-1.41,1.41l2.29,2.3h-7.59v-7a3,3,0,0,0-3-3h-16a3,3,0,0,0-3,3v16a3,3,0,0,0,3,3h16a3,3,0,0,0,3-3v-7h7.59l-2.29,2.29a1,1,0,0,0,1.3,1.52l0.11-.11,4-4A1,1,0,0,0,368.39,1218.19Zm-12.71,8.71a1,1,0,0,1-1,1h-16a1,1,0,0,1-1-1v-16a1,1,0,0,1,1-1h16a1,1,0,0,1,1,1v16Z" transform="translate(0 -979.95)"/><path class="f" d="M346,1230.19l-4,4a1,1,0,0,0,1.41,1.41l2.3-2.29v6.59a1,1,0,0,0,0,.24,2,2,0,0,0-.78.75l-9.22,16a2,2,0,0,0,1.73,3H356a2,2,0,0,0,1.73-3l-9.27-16a2,2,0,0,0-.78-0.75,1,1,0,0,0,.05-0.25v-6.59l2.29,2.29a1,1,0,0,0,1.41-1.41l-4-4A1,1,0,0,0,346,1230.19Zm10,27.71H337.41l9.27-16Z" transform="translate(0 -979.95)"/><text class="ab" transform="translate(456.57 305.94)">Syslog, Sysdig, Ptrace, <tspan x="-9.29" y="14.4">stare into the abyss, hope </tspan><tspan x="2.17" y="28.8">for a signal, wonder if </tspan><tspan x="-12.13" y="43.2">SETI is having better luck.</tspan></text><circle class="ac" cx="408.98" cy="251.74" r="1.75"/><circle class="ac" cx="428.98" cy="251.74" r="1.75"/><circle class="ac" cx="448.98" cy="251.74" r="1.75"/><circle class="ac" cx="468.98" cy="251.74" r="1.75"/><text class="ab" transform="translate(292.94 305.94)">Spend a long time coming <tspan x="6.57" y="14.4">up with, and disproving </tspan><tspan x="1.19" y="28.8">hypotheses based off of </tspan><tspan x="29.71" y="43.2">traced events.</tspan></text><circle class="l" cx="526.99" cy="253.44" r="28"/><circle class="ad" cx="526.99" cy="253.44" r="12"/><path class="f" d="M527,1239.38a1,1,0,0,0-1,1v2a1,1,0,0,0,2,0v-2A1,1,0,0,0,527,1239.38Z" transform="translate(0 -979.95)"/><path class="f" d="M526,1224.38v2a1,1,0,0,0,2,0v-2A1,1,0,0,0,526,1224.38Z" transform="translate(0 -979.95)"/><path class="f" d="M534,1234.38h2a1,1,0,1,0,0-2h-2A1,1,0,0,0,534,1234.38Z" transform="translate(0 -979.95)"/><path class="f" d="M521,1233.38a1,1,0,0,0-1-1h-2a1,1,0,0,0,0,2h2A1,1,0,0,0,521,1233.38Z" transform="translate(0 -979.95)"/><path class="f" d="M534.06,1239l-1.41-1.41a1,1,0,0,0-1.41,1.41l1.41,1.41A1,1,0,0,0,534.06,1239Z" transform="translate(0 -979.95)"/><path class="f" d="M519.92,1227.72l1.41,1.41a1,1,0,0,0,1.41-1.41l-1.41-1.41A1,1,0,0,0,519.92,1227.72Z" transform="translate(0 -979.95)"/><path class="f" d="M534.06,1226.31a1,1,0,0,0-1.41,0l-1.41,1.41a1,1,0,0,0,1.3,1.52l0.11-.11,1.41-1.41A1,1,0,0,0,534.06,1226.31Z" transform="translate(0 -979.95)"/><path class="f" d="M520.63,1240.74a1,1,0,0,0,.71-0.29l1.41-1.41a1,1,0,0,0-1.41-1.41l-1.41,1.41a1,1,0,0,0,.71,1.71h0Z" transform="translate(0 -979.95)"/><path class="f" d="M527,1204.38a29,29,0,1,0,29,29A29,29,0,0,0,527,1204.38Zm0,56a27,27,0,1,1,27-27A27,27,0,0,1,527,1260.38Z" transform="translate(0 -979.95)"/><path class="m" d="M508.4,1237.45a1,1,0,0,0,.83-1.14h0a18,18,0,0,1,8.76-18.51v4.59a1,1,0,0,0,2,0v-7a1,1,0,0,0-1-1h-7.08a1,1,0,0,0,0,2h4.57a20,20,0,0,0-9.22,20.24,1,1,0,0,0,1,.84h0.14Z" transform="translate(0 -979.95)"/><path class="m" d="M529.83,1251.16a18,18,0,0,1-18.42-8.78H516a1,1,0,1,0,0-2h-7a1,1,0,0,0-1,1v7.08a1,1,0,0,0,2,0v-4.56a20,20,0,0,0,20.15,9.24,1,1,0,1,0-.31-2v0Z" transform="translate(0 -979.95)"/><path class="m" d="M547,1233.38a20.18,20.18,0,0,0-.26-3.22,1,1,0,0,0-2,.32A18,18,0,0,1,536,1249v-4.58a1,1,0,0,0-2,0v7a1,1,0,0,0,1,1h7.08a1,1,0,0,0,0-2h-4.56A20.08,20.08,0,0,0,547,1233.38Z" transform="translate(0 -979.95)"/><path class="m" d="M530.63,1215.75a18.1,18.1,0,0,1,11.94,8.63H538a1,1,0,0,0,0,2h7a1,1,0,0,0,1-1v-7.08a1,1,0,0,0-2,0v4.55a20.11,20.11,0,0,0-13-9.06,1,1,0,0,0-.4,2Z" transform="translate(0 -979.95)"/><path class="m" d="M524,1215.61h0.16a18.17,18.17,0,0,1,2.43-.23,1,1,0,0,0,0-2h0a20.14,20.14,0,0,0-2.69.24,1,1,0,1,0,.15,2h0Z" transform="translate(0 -979.95)"/><rect class="s" x="552.53" y="1258.26" width="3.32" height="2.4" transform="translate(-728.25 -219.19) rotate(-45)"/><rect class="t" x="557.35" y="1258.46" width="5.09" height="13.51" rx="2.4" ry="2.4" transform="translate(-730.65 -213.47) rotate(-45)"/><path class="u" d="M554.22,1261.34h0a1.27,1.27,0,0,1,1.8,0l7.75,7.75a1.27,1.27,0,0,1,0,1.8h0a1.27,1.27,0,0,1-1.8,0l-7.75-7.75A1.27,1.27,0,0,1,554.22,1261.34Z" transform="translate(0 -979.95)"/><circle class="r" cx="543.07" cy="268.44" r="14.4"/><path class="q" d="M534.75,1256.7l16.63-16.63a2.4,2.4,0,0,1,3.67.32,14.4,14.4,0,0,1-20,20A2.4,2.4,0,0,1,534.75,1256.7Z" transform="translate(0 -979.95)"/><circle class="v" cx="543.07" cy="268.44" r="10.8"/><circle class="w" cx="543.07" cy="268.44" r="3"/><path class="f" d="M543.07,1237a11.4,11.4,0,0,0-11.4,11.4,0.6,0.6,0,0,0,1.2,0,10.2,10.2,0,1,1,10.2,10.2,0.6,0.6,0,0,0,0,1.2A11.4,11.4,0,0,0,543.07,1237Z" transform="translate(0 -979.95)"/><path class="f" d="M565.19,1266.06l-6.2-6.2a3,3,0,0,0-2-.87,1.47,1.47,0,0,1-.25-0.22l-1.52-1.52a15,15,0,1,0-3.25,3.25l1.52,1.52a1.42,1.42,0,0,1,.22.27,3,3,0,0,0,.88,2l6.2,6.2a3,3,0,0,0,4.24,0l0.2-.2a3,3,0,0,0,0-4.24h0Zm-35.93-17.68a13.8,13.8,0,1,1,13.8,13.8A13.8,13.8,0,0,1,529.27,1248.38Zm25.27,11.68a3,3,0,0,0-.55.79l-1.12-1.12a15.12,15.12,0,0,0,1.55-1.55l1.12,1.12a3,3,0,0,0-.79.55Zm9.8,9.4-0.2.2a1.8,1.8,0,0,1-2.54,0l-6.2-6.2a1.8,1.8,0,0,1,0-2.54l0.2-.2a1.8,1.8,0,0,1,2.54,0l6.2,6.2A1.8,1.8,0,0,1,564.34,1269.46Z" transform="translate(0 -979.95)"/><path class="f" d="M540.74,1257.08a0.6,0.6,0,0,0-.74.42h0l-0.31,1.16a0.6,0.6,0,0,0,1.15.35v0l0.31-1.16a0.6,0.6,0,0,0-.42-0.74h0Z" transform="translate(0 -979.95)"/><path class="f" d="M538.57,1256.18a0.6,0.6,0,0,0-.82.22h0l-0.6,1a0.6,0.6,0,0,0,1,.6l0.6-1a0.6,0.6,0,0,0-.21-0.82h0Z" transform="translate(0 -979.95)"/><path class="f" d="M535.87,1254.75l-0.86.83a0.61,0.61,0,1,0,.86.86l0.83-.86A0.6,0.6,0,0,0,535.87,1254.75Z" transform="translate(0 -979.95)"/><path class="f" d="M535.27,1252.88a0.6,0.6,0,0,0-.82-0.22h0l-1,.6a0.6,0.6,0,0,0,.6,1l1-.6A0.6,0.6,0,0,0,535.27,1252.88Z" transform="translate(0 -979.95)"/><path class="f" d="M534.37,1250.71a0.6,0.6,0,0,0-.73-0.43h0l-1.16.31a0.6,0.6,0,0,0,.31,1.16l1.16-.31A0.6,0.6,0,0,0,534.37,1250.71Z" transform="translate(0 -979.95)"/><circle class="ac" cx="263.13" cy="253.38" r="1.75"/><circle class="ac" cx="283.13" cy="253.38" r="1.75"/><circle class="ac" cx="303.13" cy="253.38" r="1.75"/><circle class="ac" cx="323.13" cy="253.38" r="1.75"/><path class="m" d="M247.75,1223.22c0-13.25-10.75-21-24-21-13,0-23.67,8.48-24,21.4a4,4,0,0,1-.2,1.17L194.14,1241a1,1,0,0,0,.63,1.26l0.21,0,3,0.33a2,2,0,0,1,1.78,2v9.07a4,4,0,0,0,4,4l0.46,0,9.55-1.1-0.7,5.29a2,2,0,0,0,1.72,2.24l0.28,0h26.5a2,2,0,0,0,2-2.21l-1.47-13.64a7.91,7.91,0,0,1,.75-4.3A47.56,47.56,0,0,0,247.75,1223.22Z" transform="translate(0 -979.95)"/><circle class="i" cx="222.75" cy="252.27" r="6"/><circle class="l" cx="235.75" cy="240.27" r="4"/><circle class="a" cx="222.75" cy="267.27" r="2"/><circle class="c" cx="234.75" cy="261.27" r="3"/><circle class="ae" cx="210.75" cy="240.27" r="3"/><circle class="y" cx="207.75" cy="255.27" r="2"/><path class="af" d="M207.75,1211.92a3,3,0,0,0,3.81.35,20.78,20.78,0,0,1,11.85-3.51,21.63,21.63,0,0,1,12.45,3.61,3,3,0,0,0,3.82-.34l0.45-.45a3,3,0,0,0-.28-4.5,26.93,26.93,0,0,0-16.1-4.86,25.81,25.81,0,0,0-15.86,5.11,3,3,0,0,0-.48,4.22l0.23,0.25Z" transform="translate(0 -979.95)"/><path class="f" d="M223.75,1210.22a1,1,0,0,0,1-1v-2a1,1,0,0,0-2,0v2A1,1,0,0,0,223.75,1210.22Z" transform="translate(0 -979.95)"/><path class="f" d="M217.75,1210.14a1,1,0,1,0,1.95-.45l0-.07-0.53-1.93a1,1,0,0,0-1.93.53Z" transform="translate(0 -979.95)"/><path class="f" d="M233,1212.7a1,1,0,0,0,1.37-.36h0l1-1.73a1,1,0,0,0-1.73-1l-1,1.73a1,1,0,0,0,.36,1.37h0Z" transform="translate(0 -979.95)"/><path class="f" d="M213.13,1212.33a1,1,0,0,0,1.73-1l-1-1.73a1,1,0,0,0-1.73,1Z" transform="translate(0 -979.95)"/><path class="f" d="M228.54,1210.85a1,1,0,0,0,1.21-.71l0.53-1.92a1,1,0,0,0-1.93-.52l-0.52,1.93A1,1,0,0,0,228.54,1210.85Z" transform="translate(0 -979.95)"/><path class="f" d="M243.75,1244.5a48.86,48.86,0,0,0,5-21.28c0-13-10.28-22-25-22-14.16,0-24.67,9.41-25,22.38a3,3,0,0,1-.14.88l-5.42,16.25a2,2,0,0,0,1.68,2.62l3,0.33a1,1,0,0,1,.89,1v9.07a5,5,0,0,0,5.55,5l2.9-.32h0l5.39-.6-0.53,4a3,3,0,0,0,2.58,3.36l0.42,0h26.5a3,3,0,0,0,3-3.31l-1.49-13.69A6.91,6.91,0,0,1,243.75,1244.5Zm-1.48,18.39a1,1,0,0,1-.74.33H215a1,1,0,0,1-1-1.13l0.6-4.52,3.23-.35a1,1,0,0,0-.22-2l-2.73.3h0l-10.83,1.2a3,3,0,0,1-3.33-3v-9a3,3,0,0,0-2.67-3l-3-.33,5.42-16.26a5,5,0,0,0,.25-1.45c0.3-11.83,10-20.42,23-20.42,15.89,0,23,10,23,20a46.86,46.86,0,0,1-4.82,20.4,8.9,8.9,0,0,0-.85,4.84l1.44,13.66A1,1,0,0,1,242.27,1262.89Z" transform="translate(0 -979.95)"/><path class="f" d="M210.75,1224.22a4,4,0,1,0-4-4A4,4,0,0,0,210.75,1224.22Zm0-6.25a2.25,2.25,0,1,1-2.25,2.25A2.25,2.25,0,0,1,210.75,1218Z" transform="translate(0 -979.95)"/><path class="f" d="M222.75,1244.22a3,3,0,1,0,3,3A3,3,0,0,0,222.75,1244.22Zm0,4.14a1.14,1.14,0,1,1,1.14-1.14h0A1.14,1.14,0,0,1,222.75,1248.36Z" transform="translate(0 -979.95)"/><path class="f" d="M235.75,1215.22a5,5,0,0,0-4.25,7.61l-4.33,4a7,7,0,0,0-8.71-.1l-3-3a1,1,0,0,0-1.42,1.42l3,3a7,7,0,0,0-1.29,4.07v0.38l-5.45,1.09a3,3,0,1,0,.39,2l5.45-1.09a7,7,0,0,0,5.61,4.54v3.08a1,1,0,0,0,2,0v-3.08a7,7,0,0,0,3.94-2l3.36,2.52a4.09,4.09,0,1,0,1.21-1.59l-3.38-2.53a7,7,0,0,0-.36-7.29l4.35-4A5,5,0,1,0,235.75,1215.22Zm-28,21.25a1.25,1.25,0,1,1,1.25-1.25A1.25,1.25,0,0,1,207.75,1236.47Zm15,1.13a5.38,5.38,0,1,1,5.38-5.38,5.38,5.38,0,0,1-5.38,5.38h0Zm12,1.38a2.25,2.25,0,1,1-2.25,2.25h0a2.25,2.25,0,0,1,2.25-2.25h0Zm1-15.62a3.13,3.13,0,1,1,3.13-3.14,3.13,3.13,0,0,1-3.13,3.14h0Z" transform="translate(0 -979.95)"/><text class="ab" transform="translate(164.02 305.94)">With ever thinning <tspan x="4.9" y="14.4">hypotheses, take </tspan><tspan x="-7.52" y="28.8">another look at those </tspan><tspan x="-13.03" y="43.2">traced event messages.</tspan></text><circle class="ac" cx="116.7" cy="252.74" r="1.75"/><circle class="ac" cx="136.7" cy="252.74" r="1.75"/><circle class="ac" cx="156.7" cy="252.74" r="1.75"/><circle class="ac" cx="176.7" cy="252.74" r="1.75"/><text class="ab" transform="translate(8.03 305.94)">Notice an info message, <tspan x="12.84" y="14.4">one that innocently </tspan><tspan x="0.07" y="28.8">declares a logout event, </tspan><tspan x="4.97" y="43.2">wonder about cleanup.</tspan></text><rect class="s" x="86.52" y="1242.48" width="5.54" height="4" transform="translate(-853.83 -552.31) rotate(-45)"/><rect class="t" x="94.54" y="1242.81" width="8.49" height="22.51" rx="4" ry="4" transform="translate(-857.82 -542.79) rotate(-45)"/><path class="u" d="M89.33,1247.61h0a2.12,2.12,0,0,1,3,0l12.92,12.92a2.12,2.12,0,0,1,0,3h0a2.12,2.12,0,0,1-3,0l-12.92-12.92A2.12,2.12,0,0,1,89.33,1247.61Z" transform="translate(0 -979.95)"/><circle class="r" cx="70.74" cy="246.07" r="24"/><path class="q" d="M56.88,1239.88l27.72-27.72a4,4,0,0,1,6.11.54A24,24,0,0,1,57.42,1246,4,4,0,0,1,56.88,1239.88Z" transform="translate(0 -979.95)"/><circle class="v" cx="70.74" cy="246.07" r="18"/><circle class="w" cx="70.74" cy="246.07" r="5"/><path class="f" d="M70.74,1207a19,19,0,0,0-19,19,1,1,0,0,0,2,0,17,17,0,1,1,17,17,1,1,0,1,0,0,2A19,19,0,0,0,70.74,1207Z" transform="translate(0 -979.95)"/><path class="f" d="M107.62,1255.48l-10.34-10.34a5,5,0,0,0-3.41-1.45,2.45,2.45,0,0,1-.42-0.37l-2.54-2.54a25,25,0,1,0-5.41,5.41l2.54,2.54a2.37,2.37,0,0,1,.37.45,5,5,0,0,0,1.46,3.38l10.33,10.34a5,5,0,0,0,7.07,0l0.34-.34a5,5,0,0,0,0-7.07h0ZM47.74,1226a23,23,0,1,1,23,23A23,23,0,0,1,47.74,1226Zm42.12,19.46a5,5,0,0,0-.92,1.32l-1.87-1.87a25.2,25.2,0,0,0,2.59-2.59l1.87,1.87a4.94,4.94,0,0,0-1.32.92Zm16.34,15.66-0.34.34a3,3,0,0,1-4.24,0l-10.34-10.34a3,3,0,0,1,0-4.24l0.34-.34a3,3,0,0,1,4.24,0l10.34,10.34A3,3,0,0,1,106.2,1261.14Z" transform="translate(0 -979.95)"/><path class="f" d="M66.86,1240.51a1,1,0,0,0-1.23.7h0l-0.52,1.93a1,1,0,0,0,1.91.59l0-.07,0.52-1.93a1,1,0,0,0-.7-1.23h0Z" transform="translate(0 -979.95)"/><path class="f" d="M63.24,1239a1,1,0,0,0-1.37.36h0l-1,1.73a1,1,0,0,0,1.73,1l1-1.73a1,1,0,0,0-.36-1.37h0Z" transform="translate(0 -979.95)"/><path class="f" d="M58.74,1236.63L57.3,1238a1,1,0,1,0,1.44,1.43l1.39-1.43A1,1,0,0,0,58.74,1236.63Z" transform="translate(0 -979.95)"/><path class="f" d="M57.74,1233.52a1,1,0,0,0-1.36-.37h0l-1.73,1a1,1,0,0,0,1,1.73l1.73-1A1,1,0,0,0,57.74,1233.52Z" transform="translate(0 -979.95)"/><path class="f" d="M56.25,1229.9a1,1,0,0,0-1.22-.71h0l-1.93.52a1,1,0,0,0,.52,1.93l1.93-.52A1,1,0,0,0,56.25,1229.9Z" transform="translate(0 -979.95)"/></svg>